<svg width="24" height="24" viewBox="0 0 24 24" fill="none" xmlns="http://www.w3.org/2000/svg">
<path d="M2.25588 15.632C2.28988 15.309 2.52388 15.049 2.99288 14.528L4.02288 13.375C4.27588 13.055 4.45488 12.5 4.45488 12C4.45488 11.5 4.27488 10.944 4.02388 10.625L2.99288 9.472C2.52388 8.952 2.28988 8.691 2.25588 8.368C2.22188 8.045 2.39688 7.741 2.74688 7.134L3.24088 6.277C3.61388 5.629 3.80088 5.305 4.11788 5.177C4.43588 5.047 4.79488 5.149 5.51288 5.353L6.73288 5.696C7.19188 5.802 7.67288 5.742 8.09188 5.527L8.42888 5.333C8.78808 5.10266 9.0642 4.76347 9.21688 4.365L9.55088 3.368C9.77088 2.708 9.88088 2.378 10.1409 2.188C10.4039 2 10.7519 2 11.4449 2H12.5599C13.2549 2 13.6019 2 13.8629 2.189C14.1249 2.378 14.2339 2.708 14.4539 3.368L14.7879 4.365C14.9406 4.76347 15.2167 5.10266 15.5759 5.333L15.9129 5.527C16.3319 5.742 16.8129 5.802 17.2709 5.697L18.4909 5.353C19.2099 5.149 19.5689 5.047 19.8869 5.176C20.2039 5.306 20.3909 5.629 20.7639 6.277L21.2579 7.134C21.6079 7.741 21.7829 8.044 21.7479 8.368C21.7149 8.691 21.4809 8.951 21.0119 9.472L19.9819 10.625C19.7289 10.944 19.5499 11.5 19.5499 12C19.5499 12.5 19.7299 13.056 19.9809 13.375L21.0119 14.528C21.4809 15.048 21.7149 15.309 21.7489 15.632C21.7829 15.955 21.6079 16.259 21.2579 16.866L20.7639 17.723C20.3909 18.371 20.2039 18.695 19.8869 18.823C19.5689 18.953 19.2099 18.851 18.4919 18.647L17.2719 18.304C16.8128 18.1984 16.3312 18.2583 15.9119 18.473L15.5759 18.667C15.2159 18.897 14.9409 19.237 14.7879 19.635L14.4539 20.632C14.2339 21.292 14.1239 21.622 13.8639 21.812C13.6019 22 13.2539 22 12.5599 22H11.4459C10.7509 22 10.4039 22 10.1429 21.811C9.88088 21.622 9.77088 21.293 9.55188 20.633" stroke="black" stroke-width="1.5" stroke-linecap="round"/>
<path d="M2.73696 18.7798C3.81696 17.6998 7.48896 14.0638 7.84896 13.6438C8.22896 13.1998 7.92096 12.5998 8.10496 10.7398C8.19296 9.8398 8.38696 9.1658 8.94096 8.6638C9.60096 8.0398 10.141 8.0398 12.001 7.9978C13.621 8.0398 13.813 7.8598 13.981 8.2798C14.101 8.5798 13.741 8.7598 13.309 9.2398C12.349 10.1998 11.785 10.6798 11.731 10.9798C11.341 12.2998 12.877 13.0798 13.717 12.2398C14.035 11.9218 15.505 10.4398 15.649 10.3198C15.757 10.2238 16.016 10.2278 16.141 10.3798C16.249 10.4858 16.261 10.4998 16.249 10.9798C16.238 11.4238 16.243 12.0618 16.244 12.7198C16.246 13.5718 16.201 14.5198 15.841 14.9998C15.121 16.0798 13.921 16.1398 12.841 16.1878C11.821 16.2478 10.981 16.1398 10.717 16.3318C10.501 16.4398 9.36096 17.6398 7.98096 19.0198L5.52096 21.4798C3.48096 23.0998 1.23696 20.5798 2.73696 18.7798Z" stroke="black" stroke-width="1.5" stroke-linecap="round"/>
</svg>
