<svg width="24" height="24" viewBox="0 0 24 24" fill="none" xmlns="http://www.w3.org/2000/svg">
<rect width="24" height="24" rx="4" fill="#1E5F9E"/>
<path d="M6 7.5L10.581 10.959L10.5825 10.9605C11.091 11.3332 11.3453 11.52 11.6243 11.592C11.8707 11.6558 12.1293 11.6558 12.3757 11.592C12.6547 11.52 12.9097 11.3333 13.4197 10.959C13.4197 10.959 16.3575 8.7045 18 7.5M5.25 14.85V9.15C5.25 8.31 5.25 7.89 5.4135 7.569C5.5575 7.28625 5.78625 7.0575 6.069 6.9135C6.39 6.75 6.81 6.75 7.65 6.75H16.35C17.19 6.75 17.61 6.75 17.9302 6.9135C18.213 7.0575 18.4425 7.28625 18.5865 7.569C18.75 7.88925 18.75 8.30925 18.75 9.14775V14.853C18.75 15.6915 18.75 16.11 18.5865 16.431C18.4425 16.7133 18.2128 16.9428 17.9302 17.0865C17.61 17.25 17.1907 17.25 16.3522 17.25H7.64775C6.80925 17.25 6.38925 17.25 6.069 17.0865C5.78677 16.9427 5.55731 16.7132 5.4135 16.431C5.25 16.11 5.25 15.69 5.25 14.85Z" stroke="#FBF9F3" stroke-width="1.2" stroke-linecap="round" stroke-linejoin="round"/>
</svg>
