<svg width="24" height="24" viewBox="0 0 24 24" fill="none" xmlns="http://www.w3.org/2000/svg">
<rect width="24" height="24" rx="4" fill="#1E5F9E"/>
<path d="M10.3347 6.838C10.2357 6.59071 10.065 6.37872 9.84444 6.22936C9.6239 6.08 9.36369 6.00012 9.09733 6H7.26333C6.92828 6 6.60694 6.1331 6.37002 6.37002C6.1331 6.60694 6 6.92828 6 7.26333C6 13.1927 10.8067 18 16.7373 18C17.0723 17.9998 17.3934 17.8666 17.6302 17.6297C17.867 17.3928 18 17.0716 18 16.7367V14.9027C18 14.6362 17.9202 14.3758 17.7708 14.1552C17.6215 13.9345 17.4094 13.7637 17.162 13.6647L15.4047 12.962C15.1815 12.8727 14.9384 12.8454 14.701 12.8829C14.4635 12.9205 14.2407 13.0215 14.056 13.1753L13.6027 13.554C13.347 13.7673 13.0208 13.8772 12.6882 13.8622C12.3556 13.8471 12.0407 13.7082 11.8053 13.4727L10.528 12.1933C10.2928 11.9581 10.1539 11.6435 10.1388 11.3112C10.1236 10.9789 10.2332 10.653 10.446 10.3973L10.824 9.944C10.9782 9.75937 11.0795 9.53647 11.1173 9.29892C11.1551 9.06137 11.1279 8.81803 11.0387 8.59467L10.3347 6.838Z" stroke="#FBF9F3" stroke-width="1.2" stroke-linecap="round" stroke-linejoin="round"/>
</svg>
