<svg width="20" height="23" viewBox="0 0 20 23" fill="none" xmlns="http://www.w3.org/2000/svg">
<path d="M15.5 16.4414C17.4855 16.9914 18.75 17.8214 18.75 18.7494C18.75 20.4059 14.7205 21.7494 9.75 21.7494C4.7795 21.7494 0.75 20.4059 0.75 18.7494C0.75 17.8214 2.014 16.9914 4 16.4414" stroke="black" stroke-width="1.5" stroke-linecap="round" stroke-linejoin="round"/>
<path d="M9.75 19.2495C9.0955 19.2495 8.4415 19.202 7.9115 19.1485C7.227 19.079 6.7115 18.518 6.657 17.832L6.312 13.526C5.85136 13.4662 5.39251 13.3934 4.936 13.3075C4.6026 13.2463 4.3057 13.0587 4.10726 12.7839C3.90883 12.5091 3.82419 12.1682 3.871 11.8325C4.0241 10.6572 4.29291 9.49995 4.6735 8.37752C4.9845 7.47152 5.811 6.89102 6.7675 6.83252C7.132 6.81052 7.5615 6.78952 8.0575 6.77452C7.45247 6.40544 6.98467 5.8487 6.72536 5.18913C6.46605 4.52955 6.42945 3.80329 6.62113 3.12099C6.81282 2.43869 7.22228 1.83774 7.78713 1.4097C8.35199 0.981665 9.04129 0.75 9.75 0.75C10.4587 0.75 11.148 0.981665 11.7129 1.4097C12.2777 1.83774 12.6872 2.43869 12.8789 3.12099C13.0706 3.80329 13.034 4.52955 12.7746 5.18913C12.5153 5.8487 12.0475 6.40544 11.4425 6.77452C11.8728 6.78732 12.3028 6.80665 12.7325 6.83252C13.689 6.89102 14.5155 7.47152 14.8265 8.37752C15.2071 9.49995 15.4759 10.6572 15.629 11.8325C15.6758 12.1683 15.5911 12.5092 15.3926 12.7841C15.194 13.0589 14.897 13.2464 14.5635 13.3075C14.1072 13.3934 13.6485 13.4662 13.188 13.526L12.8435 17.832C12.7885 18.5185 12.2735 19.0785 11.5885 19.1485C11.0585 19.202 10.4045 19.2495 9.75 19.2495ZM9.75 19.2495V14.7495" stroke="black" stroke-width="1.5" stroke-linecap="round" stroke-linejoin="round"/>
</svg>
